<svg width="53" height="74" viewBox="0 0 53 74" fill="none" xmlns="http://www.w3.org/2000/svg">
<path d="M46.414 37L49.891 33.5677C51.896 31.5885 53 28.9583 53 26.1595C53 23.3608 51.896 20.7306 49.891 18.7514L34.0046 3.06904C32.0026 1.08986 29.3352 0 26.5 0C23.6648 0 21.0004 1.08986 18.9954 3.06904L3.10899 18.7514C1.10404 20.7306 0 23.3608 0 26.1595C0 28.9583 1.10404 31.5885 3.10899 33.5677L6.58599 37L3.10899 40.4323C1.10404 42.4115 0 45.0417 0 47.8405C0 50.6392 1.10404 53.2694 3.10899 55.2486L18.9954 70.931C21.0004 72.9101 23.6648 74 26.5 74C29.3352 74 31.9996 72.9101 34.0046 70.931L49.891 55.2486C51.896 53.2694 53 50.6392 53 47.8405C53 45.0417 51.896 42.4115 49.891 40.4323L46.414 37ZM7.32202 29.4088C6.44173 28.5427 5.96184 27.3889 5.96184 26.1595C5.96184 24.9302 6.44173 23.7764 7.32202 22.9103L23.2085 7.22796C24.0888 6.36188 25.2546 5.88234 26.5 5.88234C27.7424 5.88234 28.9112 6.36188 29.7915 7.22796L45.678 22.9103C46.5583 23.7764 47.0411 24.9302 47.0411 26.1595C47.0411 27.386 46.5583 28.5398 45.678 29.4088L42.201 32.8411L34.0016 24.75C31.9996 22.7708 29.3322 21.6809 26.4971 21.6809C23.6619 21.6809 20.9974 22.7708 18.9925 24.75L10.7961 32.8411L7.32202 29.4088ZM37.9909 37L29.7945 45.0911C28.0398 46.8262 24.972 46.8262 23.2114 45.0911L15.015 37L23.2114 28.9089C24.0917 28.0428 25.2576 27.5633 26.5029 27.5633C27.7454 27.5633 28.9142 28.0428 29.7945 28.9089L37.9909 37ZM45.6809 51.0897L29.7945 66.7721C28.0398 68.5071 24.972 68.5071 23.2114 66.7721L7.32496 51.0897C6.44467 50.2236 5.96478 49.0698 5.96478 47.8405C5.96478 46.6111 6.44467 45.4573 7.32496 44.5912L10.802 41.1589L18.9984 49.25C21.0033 51.2292 23.6678 52.3191 26.5029 52.3191C29.3381 52.3191 32.0026 51.2292 34.0075 49.25L42.2069 41.156L45.6839 44.5883C46.5642 45.4544 47.047 46.6082 47.047 47.8376C47.044 49.0698 46.5612 50.2236 45.6809 51.0897Z" fill="#EB5746"/>
</svg>
