<svg width="1145" height="126" viewBox="0 0 1145 126" fill="none" xmlns="http://www.w3.org/2000/svg">
<g clip-path="url(#clip0_10_2)">
<path d="M721.35 3H739.94L756.94 78.29C757.269 78.2136 757.603 78.1635 757.94 78.14L740.74 2H720.55L695.64 112.4C696.003 112.111 696.404 111.873 696.83 111.69L721.35 3Z" fill="url(#paint0_linear_10_2)"/>
<path d="M739.69 73.07L730.55 29.78L721.55 73.07H739.69ZM730.55 34.65L738.45 72.07H722.74L730.55 34.65Z" fill="url(#paint1_linear_10_2)"/>
<path d="M1124.38 2L1105.67 76.8L1086.86 2.42L1086.76 2.04H1066.09V82.61C1065.86 86.5 1065.87 90.54 1064.76 94.31C1063.47 98.2555 1060.87 101.644 1057.4 103.92C1049.13 109.82 1038.5 110.46 1028.69 110.92C1004.8 111.92 980.893 112.253 956.98 111.92C933.12 111.61 909.31 110.38 885.48 109.28C873.56 108.72 861.63 108.28 849.69 108.15C843.817 108.097 837.953 108.143 832.1 108.29C829.1 108.37 826.1 108.47 823.1 108.62C820.66 108.73 818.03 108.69 815.71 109.62C814.819 109.982 814.009 110.519 813.33 111.2C812.24 111.08 811.15 111.01 810.07 110.99C806.039 110.909 802.024 111.522 798.2 112.8C798.039 111.017 797.302 109.336 796.1 108.01C793.52 105.15 789.24 104.39 785.57 104.63C782.08 104.85 778.91 106.63 776 108.44C773.09 110.25 769.48 113.19 765.78 113.26L765.61 112.47C765.319 112.472 765.029 112.431 764.75 112.35H764.55H747.9L743.78 92.8H717.31L713.38 111.4C713.327 111.463 713.293 111.539 713.28 111.62C712.75 115 708.58 116.37 705.75 117.14C701.827 118.139 697.798 118.659 693.75 118.69C689.421 118.621 685.102 118.267 680.82 117.63C673.99 116.9 667.14 116.41 660.28 116.12C632.97 114.99 605.66 117.02 578.48 119.4C551.3 121.78 523.92 124.57 496.48 124.95C482.61 125.15 468.66 125.05 454.8 124.23C447.71 123.81 440.68 123.04 433.64 122.1C427.25 121.25 420.8 120.95 414.36 120.73C401.06 120.28 387.53 120.07 374.81 115.73C371.237 114.541 367.847 112.858 364.74 110.73C370.793 110.21 376.84 109.62 382.88 108.96C387.18 108.49 391.46 107.96 395.75 107.45H395.84H396.36V90.76H371V67.58H393.43V45.85H371V24.55H396.37V2H353.26V91.46V91.57C353.392 94.0246 353.857 96.45 354.64 98.78C355.32 101.033 356.331 103.173 357.64 105.13C358.864 106.915 360.32 108.529 361.97 109.93C339.89 111.737 317.757 112.637 295.57 112.63C279.15 112.63 262.64 112.36 246.27 111.1C237.27 110.42 227.68 108.69 219.89 104.1C221.126 103.072 222.305 101.977 223.42 100.82C228.084 96.1212 231.515 90.3436 233.41 84C235.08 78.07 235.52 70.61 230.13 66.42C219.53 58.19 206.29 69.33 204.99 80.5C203.84 90.43 210.22 98.89 218.27 104.21C208.89 111.66 196.94 115.41 185.12 117.12C168.76 119.447 152.1 118.478 136.12 114.27C128.53 112.27 121.12 109.76 113.42 108.01C105.571 106.317 97.5693 105.432 89.54 105.37C81.41 105.2 73.26 105.25 65.13 105.46C57.3318 105.579 49.5535 106.281 41.86 107.56C38.1434 108.226 34.4702 109.114 30.86 110.22H19.22V21.51H1V1H53.18V21.51H35V95.3C35.3145 95.3022 35.6286 95.3256 35.94 95.37V22.51H54.18V0H0V22.51H18.22V111.22C18.22 111.22 28.29 111.87 31.12 111.22C31.2534 111.194 31.3817 111.147 31.5 111.08C47.85 106.08 65.16 106.3 82.09 106.3C91.03 106.3 100.02 106.46 108.84 108.07C117.13 109.57 125.14 112.28 133.24 114.52C149.735 119.172 167 120.448 184 118.27C196.51 116.61 209.26 112.77 219.16 104.78C221.486 106.236 223.96 107.443 226.54 108.38C233.9 111.05 241.79 111.84 249.54 112.31C258.4 112.85 267.28 113.17 276.16 113.38C305.184 114.098 334.226 113.253 363.16 110.85C364.272 111.703 365.441 112.479 366.66 113.17C376.49 118.76 388.36 120.38 399.46 121.1C406.33 121.55 413.21 121.62 420.08 121.95C426.95 122.28 433.9 123.23 440.82 124.03C455.16 125.67 469.61 125.88 484.03 125.96C512.49 126.12 540.79 123.75 569.12 121.22C597.45 118.69 625.7 116.22 654.12 116.91C661.12 117.08 668.07 117.45 675.03 118.06C680.38 118.52 685.73 119.54 691.09 119.68C695.063 119.789 699.037 119.491 702.95 118.79C706.22 118.19 710.05 117.3 712.56 114.96C713.297 114.292 713.837 113.434 714.12 112.48C714.151 112.494 714.178 112.515 714.2 112.54L718.2 93.8H743L747.12 113.27H765.3C765.209 113.327 765.139 113.411 765.099 113.51C765.059 113.61 765.051 113.719 765.076 113.823C765.102 113.927 765.159 114.02 765.241 114.09C765.322 114.159 765.423 114.201 765.53 114.21C768.53 114.28 771.38 112.44 773.86 110.91C777.06 108.91 780.32 106.6 784.06 105.79C788.31 104.87 794.06 105.92 796.4 109.98C796.94 110.933 797.239 112.005 797.27 113.1C796.85 113.25 796.42 113.41 796.01 113.58C793.837 114.48 791.76 115.596 789.81 116.91C789.745 116.949 789.69 117.002 789.648 117.065C789.607 117.129 789.58 117.201 789.57 117.276C789.561 117.351 789.568 117.427 789.593 117.499C789.617 117.571 789.657 117.636 789.71 117.69C790.825 118.522 792.221 118.883 793.599 118.696C794.977 118.509 796.227 117.789 797.08 116.69C797.75 115.866 798.154 114.858 798.24 113.8C799.912 113.218 801.627 112.77 803.37 112.46C805.761 112.027 808.192 111.853 810.62 111.94C811.28 111.94 811.94 112.01 812.62 112.07C811.47 113.68 811.07 115.7 812.54 117.38C813.029 117.931 813.669 118.326 814.381 118.517C815.092 118.707 815.844 118.684 816.543 118.451C817.242 118.218 817.857 117.784 818.311 117.204C818.766 116.625 819.04 115.924 819.1 115.19C819.17 113.8 818.56 112.19 817.1 111.81C816.27 111.6 815.42 111.45 814.57 111.32C814.706 111.204 814.85 111.097 815 111C817.28 109.62 820.26 109.73 822.83 109.61C825.61 109.483 828.39 109.377 831.17 109.29C853.45 108.67 875.73 109.76 897.98 110.86C920.23 111.96 942.67 112.86 965.05 112.98C987.22 113.13 1009.45 112.89 1031.6 111.74C1040.33 111.28 1049.6 110.28 1057.07 105.34C1060.18 103.423 1062.75 100.737 1064.52 97.54C1065.83 94.6803 1066.57 91.5924 1066.69 88.45C1066.83 86.78 1066.91 85.12 1067 83.45H1067.06V3H1086L1105.68 80.86L1125.16 3H1144V112.27H1128.25V42.27L1111.97 112.27H1099.25L1082.88 42.17V112.27H1070.81C1070.39 112.666 1069.91 113.003 1069.4 113.27H1083.88V50.85L1098.37 112.85L1098.46 113.24H1112.77L1127.21 51V113.25H1145V2H1124.38ZM208.9 93.23C205.57 87.44 204.79 80.52 207.84 74.45C210.59 68.97 216.12 64.45 222.5 64.68C224.398 64.72 226.258 65.2261 227.914 66.1538C229.571 67.0815 230.974 68.4024 232 70C233.94 73.26 233.79 77.4 233.09 81C231.694 87.6822 228.519 93.8631 223.9 98.89C222.389 100.557 220.762 102.114 219.03 103.55C214.854 100.998 211.374 97.4528 208.9 93.23ZM355.84 99.23C354.927 96.7614 354.394 94.1685 354.26 91.54V3H395.38V23.55H370V46.85H392.43V66.58H370V91.76H395.37V106.48C384.783 107.813 374.167 108.92 363.52 109.8C359.981 107.109 357.31 103.436 355.84 99.24V99.23ZM796.14 116.23C795.512 116.946 794.668 117.438 793.736 117.635C792.804 117.831 791.834 117.721 790.97 117.32C792.923 116.063 795.001 115.01 797.17 114.18C797.022 114.954 796.666 115.673 796.14 116.26V116.23ZM817.73 113.46C818.04 114.001 818.158 114.631 818.067 115.248C817.975 115.865 817.679 116.434 817.225 116.862C816.772 117.29 816.187 117.553 815.566 117.609C814.945 117.665 814.323 117.51 813.8 117.17C811.93 115.96 812.49 113.71 813.7 112.17L814.42 112.25C815.47 112.46 817.16 112.48 817.73 113.49V113.46Z" fill="url(#paint2_linear_10_2)"/>
</g>
<defs>
<linearGradient id="paint0_linear_10_2" x1="726.78" y1="112.4" x2="726.78" y2="2.03999" gradientUnits="userSpaceOnUse">
<stop offset="0.12" stop-color="#EB5746"/>
<stop offset="1" stop-opacity="0.3"/>
</linearGradient>
<linearGradient id="paint1_linear_10_2" x1="730.6" y1="73.07" x2="730.6" y2="29.78" gradientUnits="userSpaceOnUse">
<stop offset="0.12" stop-color="#EB5746"/>
<stop offset="1" stop-opacity="0.3"/>
</linearGradient>
<linearGradient id="paint2_linear_10_2" x1="572.48" y1="125.97" x2="572.48" y2="0" gradientUnits="userSpaceOnUse">
<stop offset="0.12" stop-color="#EB5746"/>
<stop offset="1" stop-opacity="0.3"/>
</linearGradient>
<clipPath id="clip0_10_2">
<rect width="1144.96" height="125.97" fill="white"/>
</clipPath>
</defs>
</svg>
